<svg width="360" height="48" viewBox="0 0 360 48" fill="none" xmlns="http://www.w3.org/2000/svg">
<g clip-path="url(#clip0_8259_31237)">
<rect x="1" y="1" width="358" height="46" fill="#FF334B" stroke="#FF334B" stroke-width="2"/>
<rect x="128" y="13" width="104" height="22" rx="3" fill="#FCFEFF"/>
<rect x="130" y="15" width="100" height="18" rx="1" fill="#FF3243"/>
<path fill-rule="evenodd" clip-rule="evenodd" d="M143.555 19.9467L142.013 18.3515C141.891 18.2247 141.981 18.0128 142.157 18.0125L149.183 18C149.294 17.9998 149.383 18.0892 149.384 18.1996L149.386 19.7976C149.386 19.908 149.297 19.9977 149.187 19.9979L143.699 20.0077C143.645 20.0078 143.593 19.9857 143.555 19.9467ZM143.619 22.6717L148.55 22.663C148.66 22.6628 148.75 22.7521 148.75 22.8626L148.753 24.4605C148.753 24.571 148.664 24.6607 148.553 24.6609L143.622 24.6696L143.625 26.3651C143.625 26.4169 143.605 26.4666 143.569 26.504L142.049 28.0884C141.924 28.2184 141.704 28.1301 141.704 27.9499L141.704 20.0551C141.704 19.8752 141.923 19.7868 142.048 19.9161L143.575 21.4957C143.611 21.5336 143.631 21.5843 143.631 21.637L143.619 22.6717ZM142.033 29.6615L143.569 28.0609C143.607 28.0217 143.659 27.9995 143.713 27.9994L149.2 27.9896C149.311 27.9894 149.4 28.0788 149.401 28.1893L149.403 29.7872C149.404 29.8976 149.314 29.9873 149.204 29.9875L142.177 30C142.001 30.0003 141.911 29.7888 142.033 29.6615ZM134 19.8034V18.2055C134 18.0951 134.09 18.0055 134.2 18.0055H139.572C139.683 18.0055 139.772 18.0951 139.772 18.2055V29.7931C139.772 29.9035 139.683 29.9931 139.572 29.9931H138.048C137.938 29.9931 137.848 29.9035 137.848 29.7931V20.0034H134.2C134.09 20.0034 134 19.9139 134 19.8034ZM155.657 27.955C153.192 27.2761 151.96 25.9447 151.96 23.3333C151.96 21.3354 153.884 19.3375 157.091 20.6694L156.017 22.8984C155.97 22.9962 156.09 23.0885 156.172 23.0174L159.525 20.1169C159.6 20.0518 159.616 19.941 159.552 19.865C158.965 19.1691 157.085 18.0055 155.167 18.0055C153.883 18.0055 150.548 18.9379 150.035 22.6673C149.824 24.855 150.028 28.5519 155.56 29.9335C155.684 29.9647 155.807 29.8703 155.807 29.7417V28.1499C155.807 28.0588 155.745 27.9792 155.657 27.955ZM159.455 29.9931H157.931C157.82 29.9931 157.731 29.9035 157.731 29.7931V24.7459C157.731 24.6942 157.751 24.6444 157.787 24.6072L159.596 22.7286C159.634 22.6895 159.686 22.6673 159.74 22.6673H164.145V18.2055C164.145 18.0951 164.234 18.0055 164.345 18.0055H165.869C165.979 18.0055 166.069 18.0951 166.069 18.2055V29.7931C166.069 29.9035 165.979 29.9931 165.869 29.9931H164.345C164.234 29.9931 164.145 29.9035 164.145 29.7931V24.6653H159.655V29.7931C159.655 29.9035 159.565 29.9931 159.455 29.9931ZM209.367 18.3442L210.906 19.9422C210.944 19.9813 210.996 20.0034 211.05 20.0034H216.537C216.648 20.0034 216.738 19.9139 216.738 19.8034V18.2055C216.738 18.0951 216.648 18.0055 216.537 18.0055H209.511C209.335 18.0055 209.245 18.2172 209.367 18.3442ZM208.744 19.6947L210.268 21.2773C210.304 21.3146 210.324 21.3643 210.324 21.416V23.3333H215.896C216.007 23.3333 216.096 23.4229 216.096 23.5333V25.1312C216.096 25.2417 216.007 25.3312 215.896 25.3312H210.324V29.7931C210.324 29.9035 210.234 29.9931 210.124 29.9931H208.6C208.489 29.9931 208.4 29.9035 208.4 29.7931V19.8334C208.4 19.6534 208.619 19.5651 208.744 19.6947ZM219.63 18.3442L221.169 19.9422C221.207 19.9813 221.259 20.0034 221.313 20.0034H226.8C226.911 20.0034 227 19.9139 227 19.8034V18.2055C227 18.0951 226.911 18.0055 226.8 18.0055H219.774C219.598 18.0055 219.508 18.2172 219.63 18.3442ZM219.006 19.6947L220.53 21.2773C220.566 21.3146 220.586 21.3643 220.586 21.416V23.3333H226.159C226.269 23.3333 226.359 23.4229 226.359 23.5333V25.1312C226.359 25.2417 226.269 25.3312 226.159 25.3312H220.586V29.7931C220.586 29.9035 220.497 29.9931 220.386 29.9931H218.862C218.752 29.9931 218.662 29.9035 218.662 29.7931V19.8334C218.662 19.6534 218.881 19.5651 219.006 19.6947ZM169.862 24.6055L168.165 22.8443C168.103 22.7795 167.993 22.8237 167.993 22.9137V29.7914C167.993 29.9018 168.083 29.9914 168.193 29.9914H169.718C169.828 29.9914 169.918 29.9018 169.918 29.7914V24.7442C169.918 24.6925 169.898 24.6428 169.862 24.6055ZM167.993 20.5847V18.2388C167.993 18.1508 168.099 18.1057 168.162 18.1663L175.69 25.3312V18.2055C175.69 18.0951 175.78 18.0055 175.89 18.0055H177.414C177.525 18.0055 177.614 18.0951 177.614 18.2055V29.6624C177.614 29.7861 177.465 29.849 177.377 29.763L168.054 20.7283C168.015 20.6907 167.993 20.6389 167.993 20.5847Z" fill="white"/>
<circle cx="186" cy="20" r="4.75" fill="#FF3243" stroke="#FCC82F" stroke-width="2.5"/>
<circle cx="200" cy="28" r="4.75" fill="#FF3243" stroke="#FCC82F" stroke-width="2.5"/>
<path d="M204.511 10L179 38H181.489L207 10H204.511Z" fill="#FCC82F"/>
<g style="mix-blend-mode:multiply" opacity="0.15">
<path d="M352.608 18.9453C352.554 22.4556 350.231 24.2787 347.648 24.2695C344.833 24.2591 342.577 22.2178 342.63 18.8656C342.682 15.6781 344.804 13.4075 347.958 13.6303C351.017 13.8466 352.653 16.0806 352.608 18.9453ZM345.924 18.8772C345.895 20.7079 346.528 22.0389 347.765 22.0604C348.956 22.0812 349.55 20.9338 349.58 19.013C349.608 17.2761 349.137 15.9063 347.837 15.8324C346.575 15.7604 345.954 17.1276 345.924 18.8772ZM348.536 30.1608L357.502 14.8066C357.586 14.6628 357.711 14.5448 357.864 14.4666C358.017 14.3884 358.19 14.3534 358.363 14.3656C358.515 14.3764 358.661 14.4228 358.788 14.5007C358.915 14.5786 359.02 14.6855 359.093 14.8116C359.165 14.9377 359.203 15.0789 359.203 15.2224C359.203 15.3659 359.164 15.5071 359.092 15.6331L350.226 30.9858C350.151 31.1153 350.042 31.2243 349.909 31.3023C349.777 31.3804 349.626 31.4248 349.47 31.4314L349.371 31.4356C349.209 31.4423 349.049 31.4083 348.907 31.337C348.764 31.2656 348.644 31.1596 348.559 31.0297C348.474 30.8999 348.428 30.751 348.424 30.5984C348.42 30.4458 348.459 30.295 348.538 30.1616L348.536 30.1608ZM363.875 25.8344C363.823 29.085 361.832 30.8634 359.622 30.9554C357.245 31.0539 355.327 29.2624 355.352 26.1718C355.398 23.2336 357.208 21.05 359.899 21.1185C362.518 21.1858 363.918 23.1813 363.875 25.8344ZM358.182 26.0475C358.13 27.7382 358.67 28.9407 359.727 28.9114C360.744 28.8833 361.254 27.799 361.283 26.0225C361.308 24.4164 360.931 23.1705 359.819 23.1578C358.714 23.1451 358.207 24.4322 358.182 26.0475H358.182Z" fill="#FCFEFF"/>
</g>
<path d="M352.889 18.7832C352.832 22.2927 350.511 24.117 347.927 24.1073C345.113 24.0973 342.857 22.0557 342.911 18.7035C342.962 15.516 345.084 13.2454 348.238 13.4682C351.297 13.6841 352.934 15.9189 352.889 18.7832ZM346.206 18.7158C346.178 20.5466 346.81 21.8775 348.049 21.8991C349.24 21.9203 349.833 20.7725 349.864 18.8516C349.892 17.1151 349.421 15.7449 348.121 15.6714C346.854 15.5995 346.234 16.9658 346.206 18.7158ZM348.818 29.9987L357.782 14.646C357.866 14.502 357.991 14.3837 358.144 14.3053C358.297 14.2269 358.47 14.1915 358.643 14.2035C358.795 14.2142 358.941 14.2606 359.068 14.3384C359.196 14.4163 359.3 14.5232 359.373 14.6493C359.445 14.7754 359.483 14.9167 359.483 15.0603C359.483 15.2038 359.445 15.345 359.372 15.471L350.506 30.8237C350.431 30.9528 350.322 31.0616 350.19 31.1395C350.058 31.2174 349.907 31.2618 349.751 31.2685L349.652 31.2723C349.491 31.2793 349.33 31.2454 349.188 31.1741C349.045 31.1029 348.925 30.9969 348.84 30.8671C348.755 30.7373 348.708 30.5884 348.704 30.4357C348.7 30.2831 348.739 30.1322 348.818 29.9987ZM364.155 25.6722C364.104 28.9213 362.112 30.7017 359.902 30.7933C357.525 30.8922 355.608 29.1002 355.632 26.0097C355.679 23.0727 357.488 20.8879 360.179 20.9564C362.797 21.023 364.198 23.0192 364.155 25.6722ZM358.461 25.8854C358.41 27.5761 358.949 28.7789 360.006 28.7497C361.023 28.7212 361.533 27.6369 361.562 25.8604C361.588 24.2543 361.21 23.0088 360.098 22.9961C358.994 22.9834 358.488 24.2701 358.461 25.8854Z" fill="#FCFEFF"/>
<g style="mix-blend-mode:multiply" opacity="0.15">
<path d="M316.702 15.7387C317.348 17.9734 316.331 19.4539 314.806 19.8082C313.146 20.194 311.422 19.2135 310.805 17.0792C310.221 15.0495 311.033 13.313 312.935 13.0147C314.78 12.7253 316.175 13.9147 316.702 15.7387ZM312.749 16.6272C313.086 17.7929 313.716 18.5491 314.449 18.3903C315.155 18.2375 315.283 17.4267 314.93 16.2037C314.611 15.0978 314.069 14.2943 313.289 14.4287C312.531 14.559 312.429 15.513 312.749 16.6272ZM316.468 23.4223L318.787 12.4304C318.809 12.3275 318.86 12.2351 318.935 12.1642C319.01 12.0933 319.105 12.0469 319.21 12.0305C319.301 12.0162 319.396 12.0254 319.486 12.057C319.576 12.0887 319.659 12.1419 319.726 12.2118C319.793 12.2817 319.842 12.3661 319.87 12.4571C319.898 12.5482 319.902 12.6431 319.884 12.7331L317.623 23.7102C317.603 23.8028 317.56 23.8872 317.497 23.9551C317.434 24.0231 317.354 24.0724 317.263 24.0983L317.206 24.1148C317.112 24.1416 317.011 24.1423 316.913 24.1169C316.815 24.0915 316.724 24.041 316.649 23.9704C316.574 23.8999 316.518 23.8119 316.486 23.7156C316.454 23.6193 316.448 23.5182 316.469 23.4226L316.468 23.4223ZM324.673 18.5387C325.27 20.6084 324.44 22.0145 323.155 22.3809C321.773 22.7748 320.297 21.9055 319.714 19.9412C319.175 18.0704 319.819 16.4327 321.419 16.101C322.975 15.7786 324.186 16.8495 324.673 18.5387ZM321.358 19.4678C321.654 20.5477 322.205 21.2354 322.822 21.0694C323.416 20.9098 323.508 20.1507 323.181 19.0196C322.886 17.997 322.423 17.2592 321.765 17.4061C321.112 17.5521 321.061 18.4394 321.359 19.4677L321.358 19.4678Z" fill="#FCFEFF"/>
</g>
<path d="M316.858 15.6097C317.488 17.833 316.459 19.3144 314.926 19.6757C313.257 20.0694 311.533 19.1015 310.93 16.9779C310.357 14.9588 311.184 13.2239 313.095 12.9161C314.949 12.6174 316.342 13.7954 316.858 15.6097ZM312.885 16.5173C313.215 17.6768 313.841 18.4271 314.58 18.2645C315.289 18.1086 315.424 17.2997 315.078 16.0829C314.766 14.9829 314.227 14.185 313.443 14.3234C312.679 14.4582 312.57 15.4087 312.885 16.5173ZM316.569 23.2677L318.973 12.3027C318.996 12.1999 319.048 12.1073 319.124 12.0361C319.199 11.9649 319.295 11.918 319.4 11.9009C319.492 11.8861 319.587 11.8946 319.677 11.9257C319.768 11.9567 319.85 12.0093 319.917 12.0786C319.984 12.1479 320.033 12.2317 320.06 12.3223C320.087 12.4129 320.091 12.5075 320.072 12.5973L317.725 23.5484C317.705 23.6406 317.662 23.7247 317.598 23.7926C317.534 23.8606 317.453 23.9101 317.362 23.9364L317.304 23.953C317.21 23.9803 317.109 23.9817 317.011 23.957C316.913 23.9323 316.821 23.8825 316.746 23.8127C316.671 23.7428 316.616 23.6555 316.584 23.5597C316.553 23.4639 316.548 23.3631 316.569 23.2677ZM324.837 18.3563C325.422 20.4144 324.579 21.8213 323.287 22.1933C321.898 22.5936 320.422 21.7352 319.851 19.7811C319.323 17.9205 319.981 16.2843 321.589 15.945C323.153 15.6148 324.361 16.6756 324.837 18.3563ZM321.504 19.3004C321.794 20.3749 322.341 21.0574 322.962 20.8886C323.559 20.7261 323.656 19.9691 323.337 18.8437C323.048 17.8263 322.588 17.0939 321.927 17.244C321.271 17.3928 321.214 18.2769 321.504 19.3004Z" fill="#FCFEFF"/>
<g style="mix-blend-mode:multiply" opacity="0.15">
<path d="M296.522 44.4047C297.168 46.6395 296.151 48.1199 294.627 48.4742C292.966 48.86 291.242 47.8795 290.626 45.7452C290.041 43.7155 290.853 41.979 292.755 41.6807C294.6 41.3913 295.996 42.5807 296.522 44.4047ZM292.57 45.2932C292.906 46.4589 293.536 47.2151 294.269 47.0563C294.975 46.9035 295.104 46.0927 294.751 44.8697C294.432 43.7638 293.89 42.9603 293.109 43.0947C292.351 43.225 292.249 44.179 292.57 45.2932ZM296.288 52.0884L298.607 41.0965C298.629 40.9935 298.68 40.9011 298.755 40.8302C298.83 40.7593 298.926 40.7129 299.03 40.6965C299.121 40.6823 299.216 40.6914 299.306 40.7231C299.397 40.7547 299.479 40.8079 299.546 40.8778C299.613 40.9477 299.663 41.0321 299.69 41.1231C299.718 41.2142 299.723 41.3091 299.704 41.3992L297.443 52.3762C297.424 52.4688 297.381 52.5532 297.318 52.6212C297.255 52.6891 297.174 52.7384 297.084 52.7643L297.026 52.7808C296.932 52.8076 296.831 52.8083 296.733 52.7829C296.636 52.7576 296.544 52.707 296.469 52.6365C296.394 52.5659 296.338 52.478 296.306 52.3817C296.274 52.2854 296.269 52.1842 296.289 52.0886L296.288 52.0884ZM304.493 47.2047C305.09 49.2744 304.26 50.6805 302.975 51.0469C301.593 51.4408 300.117 50.5715 299.535 48.6072C298.995 46.7365 299.64 45.0987 301.239 44.7671C302.796 44.4446 304.006 45.5155 304.493 47.2047ZM301.179 48.1338C301.475 49.2137 302.025 49.9014 302.643 49.7354C303.236 49.5759 303.328 48.8167 303.002 47.6856C302.707 46.663 302.243 45.9252 301.585 46.0721C300.932 46.2181 300.882 47.1054 301.179 48.1337L301.179 48.1338Z" fill="#FCFEFF"/>
</g>
<path d="M296.678 44.2737C297.308 46.4971 296.279 47.9784 294.746 48.3398C293.077 48.7335 291.354 47.7655 290.751 45.642C290.177 43.6228 291.005 41.8879 292.915 41.5802C294.769 41.2815 296.162 42.4594 296.678 44.2737ZM292.705 45.1814C293.035 46.3409 293.662 47.0912 294.4 46.9286C295.11 46.7726 295.244 45.9638 294.899 44.747C294.586 43.647 294.048 42.8491 293.264 42.9875C292.499 43.1222 292.39 44.0728 292.705 45.1814ZM296.389 51.9317L298.794 40.9667C298.816 40.8639 298.868 40.7714 298.944 40.7002C299.019 40.629 299.115 40.582 299.22 40.565C299.312 40.5502 299.407 40.5587 299.498 40.5897C299.588 40.6208 299.67 40.6733 299.737 40.7426C299.804 40.8119 299.853 40.8957 299.88 40.9864C299.907 41.077 299.911 41.1716 299.892 41.2614L297.546 52.2125C297.526 52.3046 297.482 52.3887 297.418 52.4567C297.355 52.5247 297.274 52.5742 297.183 52.6005L297.125 52.617C297.03 52.6443 296.929 52.6457 296.831 52.6211C296.733 52.5964 296.642 52.5466 296.567 52.4767C296.492 52.4069 296.436 52.3196 296.405 52.2237C296.373 52.1279 296.368 52.0271 296.389 51.9317ZM304.658 47.0204C305.243 49.0784 304.4 50.4854 303.108 50.8574C301.718 51.2577 300.242 50.3993 299.671 48.4451C299.143 46.5846 299.801 44.9484 301.409 44.6091C302.973 44.2788 304.181 45.3396 304.658 47.0204ZM301.324 47.9645C301.614 49.0389 302.161 49.7215 302.782 49.5527C303.379 49.3902 303.477 48.6332 303.157 47.5078C302.868 46.4904 302.408 45.758 301.747 45.908C301.091 46.0569 301.035 46.941 301.324 47.9645Z" fill="#FCFEFF"/>
<g style="mix-blend-mode:multiply" opacity="0.15">
<path d="M334.287 25.8808C333.368 27.3562 331.964 27.6099 330.923 27.0287C329.789 26.3955 329.4 25.0264 330.279 23.6177C331.115 22.2786 332.552 21.7906 333.769 22.5896C334.949 23.3648 335.038 24.677 334.287 25.8808ZM331.606 24.3586C331.126 25.1279 331.041 25.8334 331.535 26.1189C332.011 26.3937 332.544 26.0402 333.047 25.233C333.503 24.5033 333.663 23.8176 333.157 23.4957C332.666 23.1833 332.065 23.6238 331.606 24.3586ZM329.775 29.7237L337.321 25.2204C337.392 25.1782 337.473 25.1564 337.555 25.1574C337.636 25.1584 337.715 25.1822 337.782 25.2261C337.84 25.2645 337.887 25.3168 337.919 25.3783C337.95 25.4397 337.965 25.5084 337.962 25.578C337.959 25.6477 337.939 25.716 337.902 25.7768C337.865 25.8375 337.813 25.8888 337.752 25.926L330.246 30.4508C330.183 30.4889 330.111 30.5108 330.038 30.5143C329.964 30.5178 329.892 30.5028 329.827 30.4707L329.786 30.4504C329.719 30.4172 329.663 30.367 329.624 30.3049C329.585 30.2428 329.563 30.1711 329.562 30.0971C329.561 30.0231 329.58 29.9496 329.618 29.8841C329.655 29.8185 329.71 29.7634 329.776 29.7244L329.775 29.7237ZM337.075 31.3176C336.223 32.6835 334.964 32.9921 334.048 32.5374C333.063 32.048 332.747 30.8603 333.547 29.5562C334.317 28.3215 335.606 27.8005 336.675 28.4307C337.715 29.0445 337.77 30.2029 337.075 31.3176ZM334.721 30.1358C334.268 30.8407 334.179 31.4708 334.613 31.6947C335.031 31.91 335.514 31.5645 335.98 30.8181C336.401 30.1432 336.567 29.5308 336.121 29.277C335.678 29.0248 335.145 29.4569 334.722 30.136L334.721 30.1358Z" fill="#FCFEFF"/>
</g>
<path d="M334.441 25.8795C333.521 27.3533 332.118 27.6072 331.077 27.0253C329.943 26.3919 329.553 25.0227 330.432 23.6148C331.267 22.276 332.705 21.7887 333.921 22.5883C335.102 23.3638 335.191 24.6763 334.441 25.8795ZM331.759 24.3567C331.28 25.126 331.195 25.831 331.69 26.1172C332.166 26.3924 332.699 26.0389 333.202 25.2322C333.657 24.5029 333.817 23.8172 333.311 23.4954C332.818 23.1816 332.218 23.6217 331.759 24.3567ZM329.931 29.7198L337.475 25.2212C337.545 25.179 337.626 25.157 337.708 25.1579C337.79 25.1588 337.869 25.1826 337.936 25.2264C337.994 25.2647 338.041 25.3171 338.073 25.3785C338.104 25.44 338.119 25.5087 338.116 25.5784C338.114 25.648 338.093 25.7163 338.056 25.7771C338.019 25.8378 337.968 25.8891 337.906 25.9261L330.401 30.4467C330.338 30.4846 330.266 30.5064 330.193 30.5098C330.12 30.5133 330.048 30.4983 329.983 30.4664L329.942 30.4458C329.875 30.4127 329.819 30.3625 329.78 30.3004C329.74 30.2383 329.719 30.1666 329.718 30.0926C329.716 30.0186 329.736 29.9451 329.773 29.8795C329.81 29.814 329.865 29.7589 329.931 29.7198ZM337.23 31.3166C336.38 32.6815 335.12 32.9902 334.204 32.5349C333.219 32.0453 332.902 30.8575 333.702 29.5538C334.472 28.3203 335.761 27.7994 336.83 28.4301C337.87 29.0437 337.926 30.2026 337.23 31.3166ZM334.876 30.1337C334.424 30.8384 334.334 31.4685 334.769 31.6925C335.186 31.9078 335.67 31.5627 336.135 30.8166C336.556 30.142 336.722 29.5299 336.276 29.2759C335.834 29.0238 335.3 29.4557 334.876 30.1337Z" fill="#FCFEFF"/>
<g style="mix-blend-mode:multiply" opacity="0.15">
<path d="M314.871 38.6776C314.074 39.9565 312.857 40.1764 311.955 39.6726C310.973 39.1237 310.635 37.9369 311.397 36.7158C312.122 35.5551 313.368 35.1321 314.422 35.8247C315.445 36.4967 315.522 37.6342 314.871 38.6776ZM312.547 37.3581C312.131 38.0249 312.058 38.6365 312.486 38.884C312.898 39.1222 313.36 38.8157 313.797 38.1161C314.192 37.4835 314.33 36.8892 313.892 36.6102C313.466 36.3393 312.946 36.7212 312.547 37.3581ZM310.96 42.0087L317.501 38.1052C317.563 38.0687 317.633 38.0497 317.704 38.0506C317.775 38.0514 317.843 38.0721 317.901 38.1102C317.951 38.1434 317.992 38.1887 318.019 38.242C318.047 38.2953 318.06 38.3549 318.057 38.4152C318.055 38.4756 318.037 38.5348 318.005 38.5875C317.973 38.6401 317.928 38.6846 317.875 38.7168L311.369 42.6389C311.314 42.672 311.252 42.6909 311.188 42.694C311.124 42.697 311.062 42.684 311.006 42.6562L310.97 42.6385C310.912 42.6098 310.863 42.5663 310.829 42.5124C310.795 42.4586 310.777 42.3964 310.776 42.3323C310.775 42.2682 310.792 42.2044 310.824 42.1477C310.857 42.0909 310.904 42.0431 310.961 42.0093L310.96 42.0087ZM317.288 43.3904C316.549 44.5743 315.458 44.8418 314.664 44.4477C313.81 44.0234 313.536 42.994 314.23 41.8635C314.897 40.7933 316.015 40.3417 316.941 40.888C317.843 41.42 317.891 42.4242 317.288 43.3904ZM315.248 42.3659C314.855 42.9769 314.777 43.5231 315.154 43.7172C315.516 43.9038 315.935 43.6044 316.339 42.9574C316.704 42.3724 316.848 41.8416 316.461 41.6215C316.077 41.4029 315.615 41.7775 315.248 42.3661L315.248 42.3659Z" fill="#FCFEFF"/>
</g>
<path d="M315.006 38.6782C314.208 39.9557 312.992 40.1757 312.089 39.6713C311.106 39.1223 310.769 37.9354 311.53 36.715C312.254 35.5545 313.5 35.1322 314.555 35.8253C315.578 36.4976 315.656 37.6352 315.006 38.6782ZM312.681 37.3581C312.266 38.025 312.192 38.6361 312.621 38.8842C313.033 39.1228 313.495 38.8163 313.932 38.1171C314.326 37.4849 314.465 36.8905 314.026 36.6116C313.598 36.3395 313.079 36.7211 312.681 37.3581ZM311.096 42.007L317.635 38.1076C317.697 38.071 317.767 38.0519 317.838 38.0527C317.908 38.0535 317.977 38.0741 318.035 38.1121C318.086 38.1454 318.126 38.1907 318.154 38.244C318.181 38.2973 318.194 38.3569 318.192 38.4172C318.189 38.4776 318.171 38.5368 318.139 38.5894C318.107 38.6421 318.063 38.6865 318.009 38.7187L311.504 42.637C311.449 42.6699 311.387 42.6888 311.323 42.6918C311.26 42.6948 311.197 42.6818 311.141 42.6541L311.106 42.6363C311.048 42.6076 310.999 42.5641 310.965 42.5103C310.931 42.4564 310.912 42.3942 310.911 42.3301C310.91 42.266 310.927 42.2022 310.959 42.1454C310.992 42.0886 311.039 42.0408 311.096 42.007ZM317.423 43.3912C316.686 44.5743 315.594 44.8419 314.8 44.4472C313.946 44.0228 313.672 42.9932 314.365 41.8631C315.032 40.7939 316.15 40.3424 317.076 40.8891C317.978 41.421 318.026 42.4255 317.423 43.3912ZM315.383 42.3658C314.99 42.9767 314.913 43.5228 315.289 43.717C315.652 43.9037 316.071 43.6045 316.474 42.9577C316.839 42.373 316.983 41.8425 316.596 41.6223C316.213 41.4038 315.75 41.7781 315.383 42.3658Z" fill="#FCFEFF"/>
<g style="mix-blend-mode:multiply" opacity="0.15">
<path d="M334.443 40.7145C334.156 41.6099 333.462 41.9459 332.848 41.7982C332.18 41.6373 331.802 40.9879 332.076 40.1329C332.336 39.32 333.018 38.8582 333.751 39.0926C334.461 39.32 334.677 39.9838 334.443 40.7145ZM332.858 40.3211C332.709 40.7881 332.756 41.1643 333.048 41.2394C333.33 41.3117 333.56 41.0514 333.717 40.5615C333.859 40.1185 333.854 39.7415 333.55 39.6494C333.256 39.56 333.002 39.875 332.858 40.3211ZM332.601 43.356L335.929 39.9304C335.96 39.8983 335.999 39.8752 336.042 39.8638C336.084 39.8524 336.128 39.8532 336.168 39.866C336.203 39.8773 336.234 39.8974 336.259 39.9245C336.283 39.9516 336.299 39.9848 336.307 40.0212C336.314 40.0575 336.312 40.0958 336.301 40.1325C336.29 40.1693 336.27 40.2033 336.243 40.2314L332.939 43.6622C332.911 43.6911 332.876 43.7129 332.839 43.7254C332.801 43.7379 332.762 43.7408 332.724 43.7337L332.7 43.7292C332.661 43.7219 332.626 43.7042 332.597 43.6779C332.569 43.6516 332.549 43.6177 332.539 43.5797C332.529 43.5417 332.529 43.501 332.54 43.4617C332.551 43.4224 332.572 43.386 332.601 43.3563L332.601 43.356ZM336.586 43.1114C336.321 43.9404 335.708 44.2836 335.176 44.1829C334.603 44.0744 334.286 43.508 334.533 42.7184C334.772 41.969 335.373 41.5119 336.008 41.6807C336.625 41.8453 336.803 42.4348 336.586 43.1114ZM335.215 42.8457C335.071 43.2755 335.106 43.6136 335.36 43.6656C335.604 43.7156 335.81 43.4668 335.955 43.0137C336.086 42.6041 336.093 42.264 335.83 42.1982C335.568 42.1328 335.347 42.4337 335.216 42.8458L335.215 42.8457Z" fill="#FCFEFF"/>
</g>
<path d="M334.518 40.6972C334.236 41.5875 333.542 41.9189 332.925 41.7682C332.253 41.6042 331.869 40.9549 332.138 40.1045C332.394 39.2958 333.075 38.8394 333.812 39.077C334.527 39.3075 334.747 39.9704 334.518 40.6972ZM332.925 40.2966C332.779 40.7612 332.828 41.1363 333.123 41.2129C333.406 41.2866 333.635 41.0284 333.789 40.5411C333.929 40.1005 333.921 39.7246 333.616 39.6313C333.318 39.5403 333.065 39.8527 332.925 40.2966ZM332.688 43.3193L336.004 39.9245C336.035 39.8926 336.074 39.8697 336.116 39.8585C336.159 39.8473 336.203 39.8482 336.243 39.8612C336.279 39.8726 336.31 39.8928 336.335 39.9199C336.359 39.9471 336.376 39.9803 336.384 40.0166C336.392 40.0528 336.39 40.091 336.379 40.1275C336.368 40.1641 336.348 40.1978 336.321 40.2257L333.028 43.6262C333 43.6548 332.966 43.6762 332.929 43.6885C332.891 43.7007 332.852 43.7034 332.814 43.6962L332.79 43.6914C332.751 43.684 332.715 43.6661 332.686 43.6398C332.658 43.6135 332.637 43.5796 332.627 43.5417C332.616 43.5037 332.616 43.4631 332.627 43.4241C332.638 43.385 332.659 43.3488 332.688 43.3193ZM336.685 43.0975C336.425 43.9219 335.813 44.261 335.277 44.1575C334.701 44.0463 334.38 43.4801 334.622 42.6945C334.857 41.9494 335.457 41.4969 336.095 41.6687C336.716 41.8359 336.898 42.4245 336.685 43.0975ZM335.307 42.8252C335.166 43.2527 335.203 43.5899 335.458 43.6431C335.703 43.6942 335.908 43.4474 336.051 42.9967C336.18 42.5892 336.184 42.2504 335.92 42.1834C335.657 42.1169 335.437 42.4155 335.307 42.8252Z" fill="#FCFEFF"/>
<g style="mix-blend-mode:multiply" opacity="0.15">
<path d="M278.817 45.3863C278.505 46.3626 277.748 46.7289 277.079 46.5679C276.35 46.3924 275.938 45.6845 276.236 44.7523C276.52 43.866 277.263 43.3625 278.062 43.6181C278.837 43.866 279.072 44.5897 278.817 45.3863ZM277.089 44.9575C276.926 45.4666 276.978 45.8768 277.297 45.9587C277.604 46.0375 277.855 45.7537 278.026 45.2196C278.181 44.7366 278.175 44.3255 277.844 44.2251C277.523 44.1277 277.246 44.4711 277.089 44.9575ZM276.809 48.2663L280.437 44.5315C280.471 44.4965 280.514 44.4713 280.56 44.4589C280.606 44.4464 280.654 44.4473 280.698 44.4613C280.736 44.4736 280.77 44.4955 280.797 44.525C280.823 44.5546 280.841 44.5908 280.849 44.6305C280.857 44.6701 280.855 44.7118 280.843 44.7519C280.831 44.7919 280.809 44.829 280.779 44.8597L277.177 48.6001C277.146 48.6317 277.109 48.6554 277.068 48.6691C277.027 48.6828 276.984 48.6859 276.943 48.6781L276.917 48.6732C276.875 48.6652 276.836 48.6459 276.805 48.6173C276.774 48.5886 276.752 48.5517 276.741 48.5102C276.73 48.4688 276.73 48.4244 276.742 48.3816C276.754 48.3388 276.777 48.2991 276.809 48.2667L276.809 48.2663ZM281.154 47.9996C280.864 48.9035 280.197 49.2777 279.616 49.1678C278.991 49.0496 278.646 48.4321 278.915 47.5711C279.176 46.7541 279.831 46.2557 280.523 46.4398C281.196 46.6192 281.39 47.2619 281.154 47.9996ZM279.659 47.71C279.502 48.1786 279.54 48.5472 279.817 48.6039C280.083 48.6584 280.307 48.3871 280.465 47.8932C280.608 47.4466 280.616 47.0757 280.329 47.004C280.044 46.9327 279.803 47.2608 279.659 47.71L279.659 47.71Z" fill="#FCFEFF"/>
</g>
<path d="M278.896 45.3674C278.588 46.3381 277.832 46.6994 277.159 46.5351C276.426 46.3564 276.008 45.6485 276.301 44.7213C276.58 43.8396 277.322 43.342 278.126 43.6011C278.905 43.8524 279.146 44.5751 278.896 45.3674ZM277.159 44.9308C276.999 45.4373 277.053 45.8462 277.374 45.9297C277.683 46.0101 277.933 45.7286 278.101 45.1973C278.253 44.7169 278.245 44.3071 277.912 44.2054C277.588 44.1062 277.312 44.4467 277.159 44.9308ZM276.9 48.2263L280.516 44.525C280.55 44.4903 280.592 44.4653 280.638 44.4531C280.685 44.4408 280.733 44.4419 280.777 44.456C280.816 44.4685 280.85 44.4905 280.877 44.5201C280.903 44.5497 280.922 44.5859 280.93 44.6254C280.939 44.665 280.937 44.7066 280.925 44.7464C280.913 44.7862 280.891 44.823 280.861 44.8535L277.272 48.5609C277.241 48.5921 277.204 48.6154 277.163 48.6288C277.122 48.6422 277.079 48.6451 277.038 48.6372L277.012 48.632C276.969 48.6239 276.93 48.6044 276.899 48.5757C276.868 48.547 276.845 48.5101 276.834 48.4688C276.822 48.4274 276.823 48.3831 276.834 48.3405C276.846 48.2979 276.869 48.2585 276.9 48.2263ZM281.259 47.9845C280.975 48.8833 280.307 49.253 279.724 49.1402C279.096 49.019 278.745 48.4016 279.009 47.5451C279.266 46.7327 279.919 46.2394 280.615 46.4267C281.292 46.6089 281.491 47.2507 281.259 47.9845ZM279.757 47.6876C279.602 48.1537 279.643 48.5214 279.921 48.5794C280.188 48.6351 280.412 48.366 280.567 47.8746C280.708 47.4303 280.713 47.0609 280.424 46.9879C280.137 46.9153 279.898 47.2409 279.757 47.6876Z" fill="#FCFEFF"/>
<g style="mix-blend-mode:multiply" opacity="0.15">
<path d="M309.552 28.1756C309.373 28.7359 308.938 28.9462 308.554 28.8538C308.136 28.753 307.899 28.3467 308.071 27.8116C308.234 27.303 308.66 27.014 309.119 27.1607C309.563 27.303 309.698 27.7184 309.552 28.1756ZM308.56 27.9294C308.467 28.2216 308.496 28.4571 308.679 28.5041C308.855 28.5493 309 28.3864 309.098 28.0799C309.187 27.8027 309.183 27.5667 308.993 27.5091C308.809 27.4532 308.65 27.6503 308.56 27.9294ZM308.399 29.8286L310.482 27.685C310.501 27.6649 310.526 27.6505 310.552 27.6433C310.579 27.6362 310.606 27.6367 310.631 27.6447C310.653 27.6518 310.673 27.6643 310.688 27.6813C310.703 27.6983 310.714 27.7191 310.718 27.7418C310.723 27.7646 310.722 27.7885 310.715 27.8115C310.708 27.8345 310.695 27.8557 310.678 27.8734L308.611 30.0202C308.593 30.0383 308.572 30.0519 308.548 30.0598C308.525 30.0676 308.5 30.0694 308.476 30.0649L308.461 30.0621C308.437 30.0575 308.415 30.0464 308.397 30.03C308.379 30.0136 308.367 29.9923 308.36 29.9686C308.354 29.9448 308.354 29.9193 308.361 29.8947C308.368 29.8701 308.381 29.8474 308.399 29.8288L308.399 29.8286ZM310.893 29.6756C310.727 30.1944 310.344 30.4091 310.011 30.3461C309.652 30.2782 309.454 29.9237 309.608 29.4296C309.758 28.9607 310.134 28.6746 310.531 28.7803C310.917 28.8833 311.029 29.2522 310.893 29.6756ZM310.035 29.5093C309.945 29.7783 309.967 29.9899 310.126 30.0224C310.278 30.0537 310.407 29.898 310.498 29.6145C310.58 29.3581 310.585 29.1453 310.42 29.1041C310.256 29.0632 310.118 29.2515 310.035 29.5093L310.035 29.5093Z" fill="#FCFEFF"/>
</g>
<path d="M309.598 28.1626C309.421 28.7197 308.987 28.9271 308.601 28.8328C308.18 28.7302 307.94 28.3239 308.109 27.7917C308.269 27.2856 308.695 27 309.156 27.1487C309.603 27.293 309.741 27.7078 309.598 28.1626ZM308.601 27.9119C308.509 28.2026 308.54 28.4374 308.724 28.4853C308.902 28.5314 309.045 28.3698 309.142 28.0649C309.229 27.7892 309.224 27.554 309.033 27.4956C308.847 27.4386 308.689 27.6341 308.601 27.9119ZM308.452 29.8035L310.527 27.679C310.547 27.6591 310.571 27.6447 310.598 27.6377C310.624 27.6307 310.652 27.6313 310.677 27.6394C310.699 27.6465 310.719 27.6592 310.734 27.6762C310.75 27.6932 310.76 27.7139 310.765 27.7366C310.77 27.7593 310.769 27.7832 310.762 27.8061C310.755 27.8289 310.743 27.8501 310.726 27.8675L308.665 29.9955C308.648 30.0134 308.627 30.0268 308.603 30.0345C308.58 30.0422 308.555 30.0438 308.531 30.0393L308.516 30.0364C308.492 30.0317 308.469 30.0205 308.451 30.004C308.434 29.9876 308.421 29.9664 308.414 29.9426C308.408 29.9189 308.408 29.8935 308.414 29.869C308.421 29.8446 308.434 29.8219 308.452 29.8035ZM310.954 29.6647C310.791 30.1805 310.408 30.3927 310.073 30.328C309.712 30.2584 309.511 29.9041 309.662 29.4125C309.81 28.9462 310.185 28.663 310.584 28.7705C310.973 28.8751 311.087 29.2435 310.954 29.6647ZM310.092 29.4942C310.003 29.7618 310.026 29.9728 310.186 30.0061C310.339 30.0381 310.468 29.8836 310.557 29.6016C310.637 29.3466 310.64 29.1346 310.475 29.0926C310.31 29.051 310.173 29.2378 310.092 29.4942Z" fill="#FCFEFF"/>
<g style="mix-blend-mode:multiply" opacity="0.15">
<path d="M319.473 32.2653C319.767 32.7685 319.609 33.2019 319.258 33.3943C318.876 33.6039 318.395 33.4829 318.115 33.0023C317.848 32.5452 317.941 32.0632 318.387 31.8584C318.82 31.6596 319.234 31.8546 319.473 32.2653ZM318.562 32.7569C318.715 33.0194 318.915 33.1611 319.085 33.0714C319.248 32.9851 319.23 32.7774 319.069 32.502C318.924 32.253 318.742 32.0935 318.56 32.1805C318.383 32.2649 318.416 32.5059 318.562 32.7569ZM319.884 34.1653L319.781 31.3098C319.78 31.2831 319.787 31.2569 319.801 31.2343C319.815 31.2117 319.836 31.1938 319.86 31.1825C319.882 31.1727 319.905 31.1684 319.929 31.1699C319.953 31.1714 319.977 31.1787 319.997 31.1912C320.018 31.2037 320.035 31.221 320.048 31.2414C320.06 31.2618 320.067 31.2847 320.068 31.3081L320.184 34.1559C320.185 34.18 320.18 34.2036 320.168 34.2246C320.157 34.2457 320.14 34.2633 320.12 34.276L320.107 34.284C320.086 34.2971 320.061 34.3042 320.036 34.3048C320.01 34.3053 319.985 34.2992 319.962 34.2872C319.939 34.2751 319.92 34.2574 319.907 34.236C319.893 34.2146 319.885 34.1902 319.885 34.1653L319.884 34.1653ZM321.591 32.3998C321.863 32.8659 321.746 33.2681 321.455 33.4469C321.141 33.6392 320.727 33.5283 320.465 33.087C320.22 32.6658 320.277 32.2196 320.648 32.0275C321.009 31.8407 321.369 32.0194 321.591 32.3998ZM320.838 32.8571C320.976 33.1014 321.153 33.2319 321.293 33.1484C321.429 33.0682 321.405 32.8757 321.256 32.621C321.122 32.3907 320.964 32.2419 320.812 32.3235C320.661 32.4045 320.703 32.6256 320.838 32.8571L320.838 32.8571Z" fill="#FCFEFF"/>
</g>
<path d="M319.499 32.2216C319.792 32.7247 319.634 33.1581 319.283 33.3507C318.901 33.5604 318.42 33.4395 318.14 32.959C317.873 32.5022 317.966 32.0202 318.413 31.8152C318.846 31.6163 319.259 31.8112 319.499 32.2216ZM318.587 32.7135C318.741 32.9758 318.941 33.1176 319.11 33.0277C319.274 32.9413 319.256 32.7336 319.095 32.4583C318.95 32.2094 318.768 32.05 318.586 32.1371C318.408 32.222 318.441 32.4627 318.587 32.7135ZM319.909 34.1212L319.807 31.2664C319.806 31.2397 319.813 31.2134 319.827 31.1908C319.841 31.1682 319.862 31.1502 319.886 31.1389C319.908 31.129 319.931 31.1247 319.955 31.1262C319.979 31.1277 320.003 31.135 320.023 31.1475C320.044 31.16 320.061 31.1772 320.074 31.1976C320.086 31.2181 320.093 31.241 320.094 31.2644L320.209 34.1118C320.21 34.1357 320.204 34.1593 320.193 34.1803C320.182 34.2013 320.165 34.219 320.145 34.2316L320.131 34.2396C320.11 34.2527 320.086 34.2599 320.06 34.2605C320.035 34.2611 320.009 34.255 319.987 34.2429C319.964 34.2309 319.945 34.2132 319.931 34.1918C319.918 34.1704 319.91 34.146 319.909 34.1212ZM321.617 32.3553C321.889 32.8209 321.771 33.2234 321.48 33.4023C321.166 33.5947 320.752 33.4839 320.491 33.0429C320.245 32.6219 320.303 32.1756 320.673 31.9834C321.034 31.7964 321.395 31.975 321.617 32.3553ZM320.863 32.8129C321.001 33.057 321.178 33.1875 321.318 33.104C321.454 33.0237 321.43 32.8313 321.282 32.5766C321.147 32.3464 320.989 32.1978 320.837 32.2794C320.687 32.3604 320.729 32.5813 320.863 32.8129Z" fill="#FCFEFF"/>
<g style="mix-blend-mode:multiply" opacity="0.15">
<path d="M349.077 39.5736C348.747 38.4311 349.267 37.674 350.047 37.4925C350.897 37.2948 351.779 37.7958 352.093 38.8869C352.392 39.9245 351.976 40.8126 351.003 40.9655C350.059 41.1139 349.345 40.5061 349.077 39.5736ZM351.099 39.1184C350.927 38.5225 350.605 38.136 350.23 38.2174C349.869 38.2956 349.803 38.7102 349.983 39.3354C350.146 39.9008 350.423 40.3115 350.822 40.2426C351.21 40.1758 351.262 39.688 351.099 39.1184ZM349.199 35.645L348.009 41.2655C347.998 41.3182 347.971 41.3654 347.933 41.4017C347.895 41.438 347.846 41.4617 347.792 41.4701C347.746 41.4774 347.697 41.4728 347.651 41.4566C347.605 41.4404 347.563 41.4132 347.528 41.3775C347.494 41.3418 347.469 41.2987 347.455 41.2521C347.441 41.2056 347.438 41.157 347.448 41.111L348.608 35.4981C348.618 35.4507 348.64 35.4076 348.672 35.3728C348.704 35.338 348.745 35.3128 348.792 35.2996L348.821 35.2911C348.869 35.2774 348.921 35.277 348.971 35.29C349.021 35.3029 349.068 35.3287 349.106 35.3648C349.144 35.4008 349.173 35.4458 349.189 35.495C349.205 35.5443 349.208 35.596 349.198 35.6449L349.199 35.645ZM344.999 38.1438C344.695 37.0857 345.12 36.3666 345.777 36.179C346.484 35.9772 347.239 36.4214 347.537 37.4256C347.812 38.3819 347.482 39.2194 346.664 39.3894C345.867 39.5546 345.248 39.0073 344.999 38.1438ZM346.695 37.668C346.544 37.1159 346.263 36.7644 345.947 36.8494C345.643 36.9311 345.596 37.3193 345.763 37.8976C345.913 38.4203 346.15 38.7975 346.487 38.7222C346.821 38.6474 346.847 38.1937 346.695 37.668L346.695 37.668Z" fill="#FCFEFF"/>
</g>
<path d="M348.998 39.6419C348.676 38.5059 349.204 37.7483 349.989 37.5629C350.843 37.3609 351.725 37.8547 352.032 38.9397C352.324 39.9713 351.9 40.8584 350.922 41.0166C349.973 41.1702 349.261 40.5688 348.998 39.6419ZM351.031 39.1761C350.863 38.5836 350.543 38.2005 350.165 38.2839C349.802 38.364 349.733 38.7774 349.909 39.3991C350.068 39.9611 350.343 40.3687 350.744 40.2975C351.136 40.2283 351.192 39.7425 351.031 39.1761ZM349.15 35.728L347.913 41.333C347.901 41.3856 347.874 41.4329 347.836 41.4693C347.797 41.5057 347.748 41.5298 347.694 41.5385C347.647 41.5461 347.598 41.5418 347.552 41.526C347.506 41.5102 347.464 41.4834 347.43 41.448C347.396 41.4126 347.371 41.3698 347.357 41.3235C347.343 41.2772 347.341 41.2289 347.351 41.1829L348.559 35.585C348.569 35.5379 348.591 35.4949 348.624 35.4602C348.656 35.4254 348.698 35.4001 348.744 35.3866L348.774 35.3781C348.822 35.3641 348.874 35.3633 348.925 35.3759C348.975 35.3884 349.021 35.4139 349.06 35.4495C349.098 35.4852 349.127 35.5298 349.142 35.5787C349.158 35.6277 349.161 35.6792 349.15 35.728ZM344.915 38.242C344.617 37.1905 345.05 36.4711 345.711 36.2803C346.423 36.075 347.177 36.513 347.468 37.5114C347.737 38.4621 347.399 39.2986 346.577 39.4728C345.776 39.6423 345.158 39.1008 344.915 38.242ZM346.622 37.7579C346.474 37.2089 346.195 36.8604 345.877 36.9469C345.571 37.0303 345.521 37.4172 345.684 37.9922C345.831 38.512 346.066 38.8861 346.404 38.8091C346.74 38.7327 346.77 38.2808 346.622 37.7579Z" fill="#FCFEFF"/>
<path d="M294.663 32.1094C294.39 31.1443 294.839 30.5008 295.506 30.3433C296.231 30.1716 296.98 30.5912 297.241 31.5128C297.489 32.3892 297.129 33.1428 296.298 33.2772C295.492 33.4077 294.887 32.8968 294.663 32.1094ZM296.391 31.7136C296.248 31.2104 295.976 30.8849 295.655 30.9558C295.347 31.0238 295.288 31.375 295.437 31.9031C295.573 32.3806 295.806 32.7268 296.147 32.6664C296.48 32.6075 296.527 32.1948 296.391 31.7136ZM294.793 28.7845L293.742 33.546C293.732 33.5906 293.709 33.6308 293.676 33.6618C293.643 33.6927 293.602 33.7131 293.556 33.7206C293.516 33.727 293.475 33.7234 293.436 33.71C293.396 33.6965 293.361 33.6737 293.332 33.6437C293.303 33.6136 293.281 33.5772 293.269 33.5379C293.258 33.4986 293.256 33.4575 293.264 33.4185L294.29 28.6631C294.299 28.623 294.318 28.5865 294.346 28.557C294.374 28.5275 294.409 28.5059 294.448 28.4945L294.474 28.4872C294.515 28.4754 294.559 28.4747 294.601 28.4854C294.644 28.496 294.684 28.5176 294.716 28.5479C294.749 28.5782 294.773 28.6161 294.786 28.6577C294.8 28.6993 294.802 28.743 294.793 28.7845ZM291.196 30.9202C290.942 30.0269 291.309 29.4157 291.871 29.2537C292.476 29.0793 293.117 29.4514 293.364 30.2996C293.593 31.1071 293.306 31.8177 292.607 31.9657C291.927 32.1098 291.402 31.6497 291.196 30.9202ZM292.645 30.5089C292.52 30.0426 292.282 29.7465 292.012 29.82C291.753 29.8908 291.71 30.2195 291.848 30.708C291.973 31.1495 292.173 31.4673 292.46 31.4019C292.746 31.337 292.771 30.9532 292.645 30.5089Z" fill="#FCFEFF"/>
<g style="mix-blend-mode:multiply" opacity="0.15">
<path d="M335.484 12.7629C335.298 12.1195 335.591 11.6932 336.03 11.5911C336.509 11.48 337.005 11.7623 337.183 12.3768C337.351 12.9612 337.117 13.4612 336.569 13.5472C336.038 13.6305 335.636 13.2881 335.484 12.7629ZM336.623 12.507C336.526 12.1714 336.344 11.9537 336.133 11.9994C335.93 12.0434 335.893 12.2769 335.994 12.629C336.086 12.9474 336.242 13.1788 336.467 13.14C336.685 13.1025 336.715 12.8278 336.623 12.507ZM335.552 10.5505L334.884 13.7155C334.877 13.7452 334.863 13.7718 334.841 13.7922C334.819 13.8126 334.792 13.826 334.762 13.8307C334.736 13.8348 334.708 13.8322 334.682 13.8231C334.656 13.814 334.633 13.7986 334.613 13.7785C334.594 13.7584 334.58 13.7341 334.572 13.7079C334.564 13.6817 334.562 13.6543 334.568 13.6284L335.219 10.4677C335.225 10.441 335.237 10.4167 335.255 10.3971C335.273 10.3776 335.297 10.3634 335.323 10.3559L335.339 10.3512C335.366 10.3435 335.396 10.3432 335.424 10.3506C335.452 10.3579 335.478 10.3724 335.5 10.3927C335.521 10.413 335.538 10.4384 335.547 10.4661C335.556 10.4938 335.558 10.5229 335.552 10.5505L335.552 10.5505ZM333.188 11.9569C333.017 11.361 333.256 10.9561 333.626 10.8506C334.024 10.7371 334.449 10.9874 334.617 11.553C334.772 12.0916 334.586 12.5632 334.126 12.6587C333.677 12.7516 333.329 12.4433 333.188 11.9569ZM334.143 11.6893C334.058 11.3784 333.9 11.1804 333.722 11.2282C333.551 11.2741 333.524 11.4927 333.618 11.8184C333.703 12.1128 333.837 12.3253 334.026 12.2829C334.214 12.2409 334.229 11.9854 334.143 11.6893L334.143 11.6893Z" fill="#FCFEFF"/>
</g>
<path d="M335.438 12.8032C335.257 12.163 335.553 11.7365 335.995 11.6324C336.475 11.519 336.972 11.7977 337.145 12.4091C337.31 12.9905 337.072 13.4901 336.522 13.5787C335.988 13.6647 335.587 13.3256 335.438 12.8032ZM336.582 12.5418C336.487 12.2079 336.307 11.9919 336.094 12.0387C335.89 12.0836 335.851 12.3165 335.951 12.6669C336.04 12.9836 336.196 13.2134 336.421 13.1735C336.642 13.1347 336.673 12.861 336.582 12.5418ZM335.521 10.5982L334.829 13.7555C334.822 13.7851 334.807 13.8117 334.785 13.8322C334.764 13.8527 334.736 13.8662 334.706 13.8711C334.679 13.8754 334.652 13.873 334.626 13.864C334.6 13.8551 334.576 13.8399 334.557 13.82C334.538 13.8 334.523 13.7759 334.516 13.7498C334.508 13.7237 334.507 13.6965 334.512 13.6706L335.188 10.5173C335.194 10.4908 335.207 10.4666 335.225 10.447C335.243 10.4274 335.267 10.4132 335.293 10.4056L335.31 10.4008C335.337 10.393 335.366 10.3926 335.394 10.3997C335.422 10.4068 335.449 10.4211 335.47 10.4412C335.492 10.4613 335.508 10.4865 335.517 10.5141C335.526 10.5417 335.527 10.5707 335.521 10.5982ZM333.14 12.0125C332.971 11.4199 333.214 11.0148 333.586 10.9076C333.987 10.7923 334.412 11.0395 334.576 11.6021C334.728 12.1379 334.538 12.609 334.076 12.7067C333.625 12.8018 333.277 12.4964 333.14 12.0125ZM334.1 11.7406C334.017 11.4312 333.859 11.2347 333.68 11.2833C333.508 11.3301 333.48 11.5481 333.572 11.8721C333.655 12.165 333.788 12.3759 333.978 12.3327C334.167 12.2898 334.183 12.0353 334.1 11.7406Z" fill="#FCFEFF"/>
</g>
<defs>
<clipPath id="clip0_8259_31237">
<rect width="360" height="48" fill="white"/>
</clipPath>
</defs>
</svg>
