<svg width="50" height="50" viewBox="0 0 50 50" fill="none" xmlns="http://www.w3.org/2000/svg">
<g id="Frame 7" opacity="0.9">
<g id="Group 7313">
<path id="Vector" d="M41.0707 25.6874C40.1713 25.0443 38.9288 25.2633 38.2955 26.1765L34.6636 31.4134C34.6165 31.4813 34.5616 31.5419 34.502 31.597L34.3867 31.6925L34.5974 31.9032H35.5736L41.7354 27.9266L41.9132 27.5513C41.9302 26.8728 41.6368 26.0922 41.0707 25.6874Z" fill="#FFCEBE"/>
<path id="Vector_2" d="M40.5727 26.1763C40.7103 25.9779 40.8766 25.8124 41.0619 25.6813C40.1633 25.0458 38.9268 25.266 38.2955 26.1763L34.6636 31.4133C34.6165 31.4812 34.5616 31.5418 34.502 31.5969L34.3867 31.6924L34.5974 31.9031H35.5736L37.4336 30.7027L40.5727 26.1763Z" fill="#FFC1B4"/>
<path id="Vector_3" d="M43.6881 28.4429C43.0661 27.5 41.788 27.2653 40.8707 27.9116L35.7232 31.5382C35.4938 31.6999 35.2138 31.7735 34.9345 31.7457L31.1676 31.3706C31.1409 31.368 31.1392 31.329 31.1657 31.3248C32.106 31.1752 32.8739 30.4233 32.9944 29.4345C33.1367 28.2662 32.3211 27.1962 31.1516 27.0174L22.3015 25.6642C21.3005 25.5112 20.2789 25.7511 19.4525 26.3334L14.7234 29.6653L14.4629 30.6007L19.1512 37.3145H20.1412C22.0509 36.2217 24.2256 35.6515 26.4426 35.6785C27.339 35.6894 33.5082 35.7645 34.4174 35.7756C35.7865 35.8096 37.1301 35.4026 38.2477 34.6152L43.1341 31.1724C44.0154 30.5516 44.2806 29.341 43.6881 28.4429Z" fill="#FFDECF"/>
<g id="Group">
<path id="Vector_4" d="M19.0788 31.0558C18.8783 30.7688 18.8167 30.4073 18.9105 30.0701C18.9831 29.8095 19.1435 29.582 19.3647 29.4263L23.7518 26.3353C23.9468 26.1979 24.1529 26.0804 24.3667 25.9818L22.3025 25.6662C21.3015 25.5131 20.2799 25.753 19.4535 26.3353L14.7244 29.6672L14.4639 30.6027L19.1522 37.3165H20.1422C20.9479 36.8555 21.801 36.4887 22.6843 36.2193L19.0788 31.0558Z" fill="#FFCEBE"/>
</g>
<path id="Vector_5" d="M27.4084 31.0553L31.149 31.3541C31.1467 31.3424 31.1516 31.3293 31.1666 31.3269C31.8176 31.2234 32.3855 30.8309 32.7135 30.2712C32.7036 30.2699 32.6939 30.2681 32.6837 30.2673L27.5043 29.8536C27.1721 29.8264 26.882 30.0746 26.8555 30.4065C26.8289 30.7383 27.0765 31.0288 27.4084 31.0553Z" fill="#FFCEBE"/>
<path id="Vector_6" d="M20.6959 38.0989L14.1472 28.8532C13.8617 28.4501 13.2992 28.3578 12.8908 28.647L10.9805 30.0002V30.8201L17.9189 40.4111L18.5631 40.7057L20.4735 39.3526C20.8819 39.0634 20.9814 38.502 20.6959 38.0989Z" fill="#F6F6F6"/>
<path id="Vector_7" d="M15.1049 30.2053L14.1472 28.8532C13.8617 28.4501 13.2992 28.3578 12.8908 28.647L10.9805 30.0001V30.82L12.0838 32.3452L15.1049 30.2053Z" fill="#F0F0F0"/>
<path id="Vector_8" d="M10.9808 30L6.31837 33.3023C5.90185 33.5974 5.79567 34.1633 6.08113 34.5664L12.6298 43.8121C12.9153 44.2152 13.4845 44.3028 13.901 44.0079L18.5634 40.7055L10.9808 30Z" fill="#CED0D0"/>
<path id="Vector_9" d="M9.75896 35.0881C9.47342 34.685 9.6307 34.0828 10.1103 33.7431L12.4555 32.0821L10.9808 30L6.31837 33.3023C5.90185 33.5974 5.79567 34.1633 6.08113 34.5664L12.6298 43.8121C12.9153 44.2152 13.4845 44.3028 13.901 44.0079L15.3499 42.9816L9.75896 35.0881Z" fill="#CED0D0"/>
<g id="Group 7317">
<rect id="Rectangle 8120" x="23" y="11" width="17.6272" height="11.5968" rx="1" fill="#B0882C"/>
<rect id="Rectangle 8121" x="23" y="13.3184" width="17.6272" height="2.78323" fill="#8A6613"/>
<rect id="Rectangle 8122" x="32.2773" y="17.957" width="6.49421" height="0.927745" rx="0.463872" fill="#D9D9D9"/>
<rect id="Rectangle 8123" x="34.5967" y="19.8145" width="4.17485" height="0.927745" rx="0.463872" fill="#D9D9D9"/>
</g>
<g id="Group 7316">
<path id="Vector_10" d="M21.603 4.60547C19.6618 4.60547 17.4424 7.62057 17.4424 11.3264C17.4424 16.1146 21.3396 23.0874 21.4783 23.3822C21.51 23.4497 21.5554 23.4881 21.603 23.4881C21.6937 23.4881 21.7803 23.4497 21.8409 23.3822C22.1057 23.0874 28.3239 16.1146 28.3239 11.3264C28.3239 7.62057 25.309 4.60547 21.603 4.60547ZM21.603 14.8469C19.6587 14.8469 18.0825 13.2708 18.0825 11.3264C18.0825 9.38205 19.6587 7.80593 21.603 7.80593C23.5473 7.80593 25.1235 9.38208 25.1235 11.3264C25.1235 13.2708 23.5473 14.8469 21.603 14.8469Z" fill="#2962FF"/>
<path id="Vector_11" d="M21.4781 23.3822C21.3394 23.0875 17.4422 16.1146 17.4422 11.3264C17.4422 7.62057 19.6615 4.60547 21.6028 4.60547C17.8968 4.60547 14.8818 7.62057 14.8818 11.3264C14.8818 16.1146 21.1001 23.0874 21.3648 23.3822C21.4254 23.4497 21.512 23.4881 21.6028 23.4881C21.5552 23.4881 21.5099 23.4497 21.4781 23.3822Z" fill="#094C8C"/>
</g>
</g>
</g>
</svg>
