<svg xmlns="http://www.w3.org/2000/svg" width="60" height="18" fill="none"><rect width="60" height="10.723" y="3.83" fill="#EF5461" rx="1"/><path fill="#fff" fill-rule="evenodd" d="m8.015 6.838-.753-.748a.2.2 0 0 1 .14-.342l3.932-.007c.11 0 .2.09.2.2l.001.749a.2.2 0 0 1-.2.2l-3.178.006a.2.2 0 0 1-.142-.058Zm.062 1.59 2.877-.005c.11 0 .2.089.2.2l.001.748a.2.2 0 0 1-.2.2l-2.876.006.001.938a.2.2 0 0 1-.058.142l-.752.75a.2.2 0 0 1-.341-.14V7.118a.2.2 0 0 1 .34-.142l.755.749a.2.2 0 0 1 .06.144l-.007.558ZM7.273 12.3l.75-.75a.2.2 0 0 1 .142-.059l3.179-.005c.11 0 .2.09.2.2l.001.748a.2.2 0 0 1-.2.2l-3.93.008a.2.2 0 0 1-.142-.342ZM2.309 6.694v-.75c0-.11.09-.2.2-.2H5.57c.11 0 .2.09.2.2v6.494a.2.2 0 0 1-.2.2h-.754a.2.2 0 0 1-.2-.2V6.894H2.51a.2.2 0 0 1-.2-.2Zm12.926 4.756c-1.438-.395-2.156-1.16-2.156-2.641 0-1.15 1.154-2.298 3.077-1.532L15.6 8.382c-.05.096.07.19.153.122l1.8-1.495c.08-.066.096-.18.024-.252-.403-.404-1.48-1.012-2.576-1.012-.77 0-2.77.536-3.078 2.68-.125 1.247-.006 3.344 3.218 4.156a.197.197 0 0 0 .244-.192v-.743a.204.204 0 0 0-.151-.196Zm2.258 1.189h-.753a.2.2 0 0 1-.2-.2V9.657a.2.2 0 0 1 .059-.142l1.036-1.032a.2.2 0 0 1 .141-.058h2.61V5.945c0-.11.09-.2.2-.2h.754c.11 0 .2.09.2.2v6.493a.2.2 0 0 1-.2.2h-.754a.2.2 0 0 1-.2-.2V9.575h-2.693v2.864a.2.2 0 0 1-.2.2Zm30.159-6.552.752.748a.2.2 0 0 0 .141.059h3.18a.2.2 0 0 0 .2-.2v-.75a.2.2 0 0 0-.2-.2h-3.932a.2.2 0 0 0-.141.343Zm-.387.763.754.751a.2.2 0 0 1 .059.142v1.066h3.262c.11 0 .2.09.2.2v.749a.2.2 0 0 1-.2.2h-3.262v2.48a.2.2 0 0 1-.2.2h-.754a.2.2 0 0 1-.2-.2V6.992a.2.2 0 0 1 .341-.142Zm6.54-.763.753.748a.2.2 0 0 0 .141.059h3.179a.2.2 0 0 0 .2-.2v-.75a.2.2 0 0 0-.2-.2h-3.931a.2.2 0 0 0-.141.343Zm-.386.763.754.751a.2.2 0 0 1 .059.142v1.066h3.261c.11 0 .2.09.2.2v.749a.2.2 0 0 1-.2.2h-3.261v2.48a.2.2 0 0 1-.2.2h-.754a.2.2 0 0 1-.2-.2V6.992a.2.2 0 0 1 .341-.142ZM23.79 9.516l-.925-.92a.1.1 0 0 0-.17.07v3.773c0 .11.09.2.2.2h.753a.2.2 0 0 0 .2-.2V9.658a.2.2 0 0 0-.059-.142ZM22.692 7.19V5.97a.1.1 0 0 1 .168-.073l4.448 4.06V5.945c0-.11.09-.2.2-.2h.754c.11 0 .2.09.2.2v6.372a.14.14 0 0 1-.236.103l-5.47-5.084a.2.2 0 0 1-.064-.146Z" clip-rule="evenodd"/><path fill="#EF5461" stroke="#FCC82F" stroke-width="1.6" d="M36.123 6.128c0 1.67-1.36 3.03-3.046 3.03a3.038 3.038 0 0 1-3.046-3.03c0-1.67 1.36-3.03 3.046-3.03a3.038 3.038 0 0 1 3.046 3.03ZM45.353 12.256c0 1.67-1.36 3.03-3.046 3.03a3.038 3.038 0 0 1-3.046-3.03c0-1.67 1.36-3.03 3.046-3.03a3.038 3.038 0 0 1 3.046 3.03Z"/><path fill="#FCC82F" d="M45 0 29.23 18h1.539l15.77-18h-1.54Z"/></svg>