<svg xmlns="http://www.w3.org/2000/svg" width="70" height="70" fill="none"><g opacity=".9"><path fill="#E0E0E0" d="M49.318 55.264H17.812V17.301A3.309 3.309 0 0 1 21.128 14h34.823a3.309 3.309 0 0 0-3.317 3.301v34.662a3.309 3.309 0 0 1-3.316 3.301Z"/><path fill="#E0E0E0" d="M18.64 55.264h30.676a3.309 3.309 0 0 0 3.317-3.3V21.427L18.639 55.264Z"/><path fill="#C7C7C7" d="M59.267 18.952h-6.633v-1.65A3.309 3.309 0 0 1 55.95 14a3.309 3.309 0 0 1 3.317 3.301v1.65Z"/><path fill="#EBEBEB" d="M11.178 50.313v1.65a3.309 3.309 0 0 0 3.316 3.301h34.823a3.309 3.309 0 0 1-3.317-3.3v-1.651H11.178Z"/><path fill="#FFA37A" d="M41.047 47.837v12.379l3.317-2.476 3.316 2.476v-12.38h-6.633Z"/><path fill="#D64740" d="M41.047 47.837v2.023c.497.37 1.16.43 1.715.158.239.671.876 1.12 1.592 1.12.715 0 1.353-.449 1.591-1.12.564.277 1.237.21 1.735-.172v-2.01h-6.633Z"/><path fill="#FFC24F" d="M48.193 42.948a1.678 1.678 0 0 0-.33-1.912 1.697 1.697 0 0 0-1.92-.333 1.688 1.688 0 0 0-1.591-1.118c-.715 0-1.353.448-1.592 1.118a1.696 1.696 0 0 0-1.92.332 1.677 1.677 0 0 0-.33 1.913 1.686 1.686 0 0 0-1.123 1.587c0 .712.45 1.348 1.123 1.587a1.677 1.677 0 0 0 .33 1.913 1.696 1.696 0 0 0 1.92.332c.239.67.877 1.119 1.592 1.119.714 0 1.352-.448 1.59-1.119a1.697 1.697 0 0 0 1.921-.332c.505-.504.638-1.27.33-1.913a1.686 1.686 0 0 0 1.122-1.587c0-.711-.449-1.346-1.122-1.587Z"/><path fill="#FFBA38" d="M48.194 42.949a1.644 1.644 0 0 0-.138-1.68 10.643 10.643 0 0 1-6.584 7.17c.422.151.887.125 1.288-.072.24.672.877 1.12 1.592 1.12.716 0 1.353-.448 1.592-1.12a1.696 1.696 0 0 0 1.92-.332c.506-.504.638-1.27.33-1.913a1.686 1.686 0 0 0 1.121-1.587c0-.711-.448-1.346-1.121-1.586Z"/><path fill="#FCFEFF" d="M37.709 19.778h3.316v1.65H37.71v-1.65ZM29.418 19.778h6.633v1.65h-6.633v-1.65ZM26.93 23.904h16.582v1.65H26.93v-1.65ZM22.784 28.855h4.146v1.65h-4.146v-1.65ZM22.784 32.982h9.12v1.65h-9.12v-1.65ZM28.588 28.855h19.07v1.65h-19.07v-1.65ZM33.563 32.982h14.095v1.65H33.563v-1.65ZM22.784 37.109h16.582v1.65H22.784v-1.65ZM22.784 41.235H36.88v1.65H22.784v-1.65Z"/><path fill="#094C8C" d="M50.92 52.052a1.44 1.44 0 0 0-.235.566l-.3 1.707a1.113 1.113 0 0 1-1.105.924c-.053 0-.106-.003-.158-.01l-1.724-.242a1.455 1.455 0 0 0-1.216.393l-.687.663 6.87 6.836.886-3.818 3.835-.881-6.166-6.138Z"/><path fill="#196EC0" d="m52.04 53.17-.259 1.4a2.523 2.523 0 0 1-.868 1.502 2.545 2.545 0 0 1-1.993.566l-.876-.124 4.712 4.688.494-2.131 3.836-.881-5.046-5.02Z"/><path fill="#094C8C" d="M37.379 52.052c.118.17.198.363.235.566l.3 1.707a1.114 1.114 0 0 0 1.105.924c.053 0 .106-.003.159-.01l1.723-.242a1.455 1.455 0 0 1 1.216.393l.688.663-6.87 6.836-.886-3.818-3.836-.881 6.166-6.138Z"/><path fill="#196EC0" d="m36.259 53.17.258 1.4c.103.587.41 1.119.867 1.502a2.544 2.544 0 0 0 1.992.566l.877-.124-4.71 4.688-.494-2.131-3.836-.881 5.046-5.02Z"/><path fill="#FBC481" d="m52.837 47.67.764 1.555a1.278 1.278 0 0 1-.554 1.697l-1.538.813a1.287 1.287 0 0 0-.667.913l-.301 1.707c-.058.328-.242.62-.512.817-.271.195-.608.279-.939.232l-1.723-.243a1.295 1.295 0 0 0-1.078.349l-1.252 1.204a1.292 1.292 0 0 1-1.794 0L41.99 55.51a1.291 1.291 0 0 0-1.078-.349l-1.723.243a1.294 1.294 0 0 1-.935-.235 1.282 1.282 0 0 1-.51-.814l-.3-1.706a1.28 1.28 0 0 0-.666-.914l-1.538-.812a1.285 1.285 0 0 1-.554-1.698l.764-1.557a1.277 1.277 0 0 0 0-1.127l-.764-1.557a1.278 1.278 0 0 1 .554-1.697l1.538-.81a1.286 1.286 0 0 0 .665-.914l.301-1.706c.058-.328.241-.621.512-.817.27-.196.607-.28.939-.232l1.723.242a1.295 1.295 0 0 0 1.077-.348l1.252-1.205a1.292 1.292 0 0 1 1.795 0l1.252 1.205a1.291 1.291 0 0 0 1.077.348l1.724-.242c.33-.047.667.036.938.232.27.196.454.489.512.817l.3 1.706a1.28 1.28 0 0 0 .669.914l1.537.812a1.278 1.278 0 0 1 .554 1.697l-.764 1.557a1.277 1.277 0 0 0-.005 1.127Z"/><path fill="#DD9973" d="M45.7 55.162a1.293 1.293 0 0 0-1.077.349l-1.252 1.204a.377.377 0 0 1-.065.053 1.294 1.294 0 0 0 1.734-.053l1.252-1.204a1.27 1.27 0 0 1 .32-.226l-.912-.123ZM43.371 37.499l1.252 1.205a1.291 1.291 0 0 0 1.077.348l.916-.129a1.279 1.279 0 0 1-.324-.22L45.04 37.5a1.293 1.293 0 0 0-1.736-.051c.02.017.047.032.067.051ZM48.873 39.86l.301 1.706a1.28 1.28 0 0 0 .666.914l1.537.812a1.285 1.285 0 0 1 .555 1.697l-.765 1.557a1.277 1.277 0 0 0 0 1.127l.765 1.553a1.278 1.278 0 0 1-.555 1.697l-1.537.812a1.287 1.287 0 0 0-.666.914l-.3 1.707a1.276 1.276 0 0 1-.69.92l.908.129c.331.047.668-.037.938-.233.271-.195.455-.488.512-.816l.301-1.706a1.281 1.281 0 0 1 .668-.914l1.538-.812a1.279 1.279 0 0 0 .552-1.698l-.765-1.557a1.277 1.277 0 0 1 0-1.127l.765-1.555a1.278 1.278 0 0 0-.554-1.697l-1.538-.812a1.287 1.287 0 0 1-.668-.914l-.3-1.706a1.283 1.283 0 0 0-.513-.817 1.294 1.294 0 0 0-.938-.232l-.908.128a1.283 1.283 0 0 1 .691.922Z"/><path fill="#FFB899" d="M44.149 52.92c3.227 0 5.842-2.604 5.842-5.815 0-3.212-2.615-5.816-5.842-5.816-3.227 0-5.842 2.604-5.842 5.816 0 3.211 2.615 5.815 5.842 5.815Z"/><path fill="#DD9973" d="M39.977 47.105c0-1.398.507-2.748 1.427-3.804a5.846 5.846 0 0 1 3.58-1.946 5.868 5.868 0 0 0-4.686 1.34 5.818 5.818 0 0 0-2.034 4.41 5.792 5.792 0 0 0 2.034 4.41 5.85 5.85 0 0 0 4.686 1.339 5.846 5.846 0 0 1-3.58-1.946 5.796 5.796 0 0 1-1.427-3.803Z"/><path fill="#fff" stroke="#fff" stroke-width=".6" d="M43.296 49.597h-.008a.42.42 0 0 1-.306-.141l-1.858-2.108a.414.414 0 0 1 .168-.687.42.42 0 0 1 .458.14l1.557 1.766 3.252-3.409a.418.418 0 0 1 .729.272.413.413 0 0 1-.124.3l-3.566 3.738a.419.419 0 0 1-.302.13Z"/></g></svg>