<svg xmlns="http://www.w3.org/2000/svg" width="70" height="70" fill="none"><g opacity=".9"><path fill="#5BC995" d="M55.468 40.823H17.279c-1.05 0-1.91-.86-1.91-1.91V17.91c0-1.05.86-1.909 1.91-1.909h38.189c1.05 0 1.91.86 1.91 1.91v21.003c0 1.05-.86 1.91-1.91 1.91Z"/><path fill="#88E1B7" d="M51.65 38.914H21.097a3.83 3.83 0 0 0-3.819-3.82V21.73a3.83 3.83 0 0 0 3.82-3.819h30.55a3.83 3.83 0 0 0 3.819 3.819v13.366a3.83 3.83 0 0 0-3.819 3.819Z"/><path fill="#20B383" fill-opacity=".6" d="M36.372 37.004c4.218 0 7.638-3.847 7.638-8.592 0-4.746-3.42-8.593-7.638-8.593s-7.637 3.847-7.637 8.593c0 4.745 3.42 8.592 7.637 8.592ZM24.916 30.32a1.91 1.91 0 1 0 0-3.819 1.91 1.91 0 0 0 0 3.82ZM47.83 30.32a1.91 1.91 0 1 0 0-3.818 1.91 1.91 0 0 0 0 3.818Z"/><path fill="#88E1B7" d="M39.833 23.877c.068.012.136.02.203.036.516.113.931.58 1 1.126.01.076.015.152.015.228l.002 2.316a.08.08 0 0 1-.036.072c-.553.41-1.121.794-1.724 1.12a8.51 8.51 0 0 1-2.043.806 6.944 6.944 0 0 1-1.098.177 6.524 6.524 0 0 1-1.073-.003c-1.006-.086-1.976-.321-2.895-.764-.051-.024-.101-.054-.153-.078-.026-.013-.033-.03-.033-.06v-1.86c0-.584-.003-1.167 0-1.75a1.35 1.35 0 0 1 .496-1.071c.2-.169.43-.263.688-.287a.254.254 0 0 0 .035-.008h6.616Z"/><path fill="#20B383" d="M34.116 27.716c.043-.003.077-.002.108-.01a.624.624 0 0 0 .127-.042c.149-.072.299-.142.443-.223 1.176-.665 2.425-1.13 3.72-1.468.414-.108.834-.195 1.25-.294a.916.916 0 0 0 .209-.07c.106-.055.126-.17.054-.268a.255.255 0 0 0-.179-.106 2.435 2.435 0 0 0-.54.012c-.401.042-.799.114-1.194.196-.699.144-1.391.316-2.077.515-.496.145-.988.301-1.463.51a3.003 3.003 0 0 0-.625.351.796.796 0 0 0-.217.239c-.11.196-.054.575.253.64.047.01.094.013.13.018Z"/><path fill="#88E1B7" d="m33.256 32.753-.128-.02a1.26 1.26 0 0 1-.894-.566 1.298 1.298 0 0 1-.23-.696 12.03 12.03 0 0 1-.007-.42V29.91l.029.012c.48.31.999.518 1.545.653.252.063.508.112.765.152a10.327 10.327 0 0 0 1.284.084 6.079 6.079 0 0 0 1.67-.221 10.082 10.082 0 0 0 2.3-.96c.503-.282.983-.6 1.433-.967l.03-.02v.047c0 .895 0 1.79-.002 2.687 0 .677-.442 1.194-.998 1.33-.069.017-.139.022-.208.033l-.051.01-6.538.002Z"/><path fill="#20B383" d="M33.572 30.607c.252.062.508.111.764.152a10.254 10.254 0 0 0 1.284.084c.197 0 .394-.008.59-.024l.349-.042c.246-.038.49-.09.732-.156a10.082 10.082 0 0 0 2.3-.96c.503-.281.983-.6 1.433-.967l.029-.02v-1.062a.08.08 0 0 1-.008.042.076.076 0 0 1-.028.03c-.553.41-1.121.795-1.724 1.121a8.521 8.521 0 0 1-2.043.806 6.938 6.938 0 0 1-1.098.178 6.535 6.535 0 0 1-1.072-.003c-1.006-.087-1.976-.322-2.895-.764-.052-.025-.101-.054-.153-.079-.026-.012-.033-.03-.033-.059v1.058c.01.003.019.007.028.012.479.31.998.517 1.545.653Z"/><path fill="#196EC0" d="M32.253 30.97h-.83l-8.283 1.198-8.284-1.198h-.948a1.852 1.852 0 1 1 0-3.705h18.345a1.852 1.852 0 1 1 0 3.705Z"/><path fill="#094C8C" d="M32.373 27.265h-1.797a1.852 1.852 0 1 1 0 3.705h1.797a1.852 1.852 0 1 0 0-3.705Z"/><path fill="#F6F6F6" d="M31.304 33.295V30.97H14.856v2.325a8.287 8.287 0 0 0 5.523 7.812 1.111 1.111 0 0 1 0 2.096 8.287 8.287 0 0 0-5.523 7.812v2.325h16.448v-2.325a8.287 8.287 0 0 0-5.523-7.813 1.111 1.111 0 0 1-.741-1.047h.12c0-.471.177-.89.62-1.048a8.287 8.287 0 0 0 5.524-7.812Z"/><path fill="#F0F0F0" d="M14.856 30.97v1.174h13.62c.635 0 1.15.516 1.15 1.151a8.287 8.287 0 0 1-5.493 7.802c-.396.141-.7.48-.76.896a1.112 1.112 0 0 0 .73 1.21 8.287 8.287 0 0 1 5.523 7.812v2.325h1.798v-2.325a8.287 8.287 0 0 0-5.494-7.802c-.396-.142-.699-.48-.759-.896a1.111 1.111 0 0 1 .73-1.21 8.287 8.287 0 0 0 5.523-7.812V30.97H14.856Z"/><path fill="#196EC0" d="M32.253 57.044H13.907a1.852 1.852 0 0 1 0-3.704h.95l8.283-1.199 8.284 1.199h.83a1.852 1.852 0 1 1-.001 3.704Z"/><path fill="#094C8C" d="M32.373 53.34h-1.797a1.852 1.852 0 0 1 0 3.705h1.797a1.852 1.852 0 0 0 0-3.705Z"/><path fill="#FBC481" d="M27.129 46.842h-.873c-.877 0-1.745-.635-1.889-1.5l-.356-2.148a1.794 1.794 0 0 1 1.77-2.086 8.309 8.309 0 0 0 4.81-4.45H15.57a8.308 8.308 0 0 0 4.81 4.45c1.108 0 1.95.994 1.77 2.087l-.356 2.147a1.794 1.794 0 0 1-1.77 1.5h-.992c-2.287 0-4.162 1.84-4.175 4.127v2.371h16.448V50.97c-.013-2.287-1.888-4.127-4.175-4.127Z"/><path fill="#DD9973" d="M31.423 50.97c-.012-2.288-1.887-4.128-4.174-4.128h-.993a1.794 1.794 0 0 1-1.77-1.5l-.355-2.148a1.794 1.794 0 0 1 1.77-2.086 8.309 8.309 0 0 0 4.81-4.45h-1.798a8.308 8.308 0 0 1-4.81 4.45c-1.108 0-1.951.994-1.77 2.087l.356 2.147c.144.865.892 1.5 1.77 1.5h.992c2.287 0 4.162 1.84 4.175 4.127v2.371h1.797V50.97Z"/></g></svg>